<?xml version="1.0" encoding="iso-8859-1" ?>
<!-- Generator: Adobe Illustrator 19.0.0, SVG Export Plug-In . SVG Version: 6.00 Build 0)  -->
<svg
  version="1.1"
  id="Layer_1"
  xmlns="http://www.w3.org/2000/svg"
  xmlns:xlink="http://www.w3.org/1999/xlink"
  x="0px"
  y="0px"
  viewBox="0 0 512 512"
  style="enable-background:new 0 0 512 512;"
  xml:space="preserve"
  fill="white"
>
<g>
	<g>
		<rect x="231.619" y="182.857" width="48.762" height="36.571" />
	</g>
</g>
<g>
	<g>
		<rect x="231.619" y="292.571" width="48.762" height="36.571" />
	</g>
</g>
<g>
	<g>
		<rect x="292.571" y="231.619" width="36.571" height="48.762" />
	</g>
</g>
<g>
	<g>
		<rect x="365.714" y="158.476" width="36.571" height="36.571" />
	</g>
</g>
<g>
	<g>
		<rect x="280.381" y="146.286" width="36.571" height="36.571" />
	</g>
</g>
<g>
	<g>
		<rect x="329.143" y="195.048" width="36.571" height="36.571" />
	</g>
</g>
<g>
	<g>
		<rect x="316.952" y="109.714" width="36.571" height="36.571" />
	</g>
</g>
<g>
	<g>
		<rect x="402.286" y="121.905" width="36.571" height="36.571" />
	</g>
</g>
<g>
	<g>
		<rect x="353.524" y="73.143" width="36.571" height="36.571" />
	</g>
</g>
<g>
	<g>
		<rect x="438.857" y="85.333" width="36.571" height="36.571" />
	</g>
</g>
<g>
	<g>
		<rect x="390.095" y="36.571" width="36.571" height="36.571" />
	</g>
</g>
<g>
	<g>
		<rect x="426.667" width="48.762" height="36.571" />
	</g>
</g>
<g>
	<g>
		<rect x="475.429" y="36.571" width="36.571" height="48.762" />
	</g>
</g>
<g>
	<g>
		<rect x="365.714" y="316.952" width="36.571" height="36.571" />
	</g>
</g>
<g>
	<g>
		<rect x="329.143" y="280.381" width="36.571" height="36.571" />
	</g>
</g>
<g>
	<g>
		<rect x="316.952" y="365.714" width="36.571" height="36.571" />
	</g>
</g>
<g>
	<g>
		<rect x="402.286" y="353.524" width="36.571" height="36.571" />
	</g>
</g>
<g>
	<g>
		<rect x="353.524" y="402.286" width="36.571" height="36.571" />
	</g>
</g>
<g>
	<g>
		<rect x="438.857" y="390.095" width="36.571" height="36.571" />
	</g>
</g>
<g>
	<g>
		<rect x="390.095" y="438.857" width="36.571" height="36.571" />
	</g>
</g>
<g>
	<g>
		<rect x="426.667" y="475.429" width="48.762" height="36.571" />
	</g>
</g>
<g>
	<g>
		<rect y="426.667" width="36.571" height="48.762" />
	</g>
</g>
<g>
	<g>
		<rect x="36.571" y="475.429" width="48.762" height="36.571" />
	</g>
</g>
<g>
	<g>
		<rect x="182.857" y="231.619" width="36.571" height="48.762" />
	</g>
</g>
<g>
	<g>
		<rect x="146.286" y="280.381" width="36.571" height="36.571" />
	</g>
</g>
<g>
	<g>
		<rect x="109.714" y="316.952" width="36.571" height="36.571" />
	</g>
</g>
<g>
	<g>
		<rect x="73.143" y="353.524" width="36.571" height="36.571" />
	</g>
</g>
<g>
	<g>
		<rect x="36.571" y="390.095" width="36.571" height="36.571" />
	</g>
</g>
<g>
	<g>
		<rect x="85.333" y="438.857" width="36.571" height="36.571" />
	</g>
</g>
<g>
	<g>
		<rect x="121.905" y="402.286" width="36.571" height="36.571" />
	</g>
</g>
<g>
	<g>
		<rect x="158.476" y="365.714" width="36.571" height="36.571" />
	</g>
</g>
<g>
	<g>
		<rect x="195.048" y="329.143" width="36.571" height="36.571" />
	</g>
</g>
<g>
	<g>
		<rect x="195.048" y="146.286" width="36.571" height="36.571" />
	</g>
</g>
<g>
	<g>
		<rect x="146.286" y="195.048" width="36.571" height="36.571" />
	</g>
</g>
<g>
	<g>
		<rect x="158.476" y="109.714" width="36.571" height="36.571" />
	</g>
</g>
<g>
	<g>
		<rect x="121.905" y="73.143" width="36.571" height="36.571" />
	</g>
</g>
<g>
	<g>
		<rect x="85.333" y="36.571" width="36.571" height="36.571" />
	</g>
</g>
<g>
	<g>
		<rect x="109.714" y="158.476" width="36.571" height="36.571" />
	</g>
</g>
<g>
	<g>
		<rect x="73.143" y="121.905" width="36.571" height="36.571" />
	</g>
</g>
<g>
	<g>
		<rect x="36.571" y="85.333" width="36.571" height="36.571" />
	</g>
</g>
<g>
	<g>
		<rect x="280.381" y="329.143" width="36.571" height="36.571" />
	</g>
</g>
<g>
	<g>
		<rect x="475.429" y="426.667" width="36.571" height="48.762" />
	</g>
</g>
<g>
	<g>
		<rect x="36.571" width="48.762" height="36.571" />
	</g>
</g>
<g>
	<g>
		<rect y="36.571" width="36.571" height="48.762" />
	</g>
</g>
<g>
</g>
<g>
</g>
<g>
</g>
<g>
</g>
<g>
</g>
<g>
</g>
<g>
</g>
<g>
</g>
<g>
</g>
<g>
</g>
<g>
</g>
<g>
</g>
<g>
</g>
<g>
</g>
<g>
</g>
</svg>
